<?xml version="1.0" encoding="UTF-8" standalone="no"?>
<!-- Created with Inkscape (http://www.inkscape.org/) -->

<svg
   xmlns:dc="http://purl.org/dc/elements/1.1/"
   xmlns:cc="http://creativecommons.org/ns#"
   xmlns:rdf="http://www.w3.org/1999/02/22-rdf-syntax-ns#"
   xmlns:svg="http://www.w3.org/2000/svg"
   xmlns="http://www.w3.org/2000/svg"
   xmlns:sodipodi="http://sodipodi.sourceforge.net/DTD/sodipodi-0.dtd"
   xmlns:inkscape="http://www.inkscape.org/namespaces/inkscape"
   id="svg2403"
   sodipodi:version="0.32"
   inkscape:version="0.91 r13725"
   width="24"
   height="24"
   xml:space="preserve"
   sodipodi:docname="lift.svg"
   inkscape:output_extension="org.inkscape.output.svg.inkscape"
   version="1.0"><metadata
     id="metadata2408"><rdf:RDF><cc:Work
         rdf:about=""><dc:format>image/svg+xml</dc:format><dc:type
           rdf:resource="http://purl.org/dc/dcmitype/StillImage" /><dc:title></dc:title></cc:Work></rdf:RDF></metadata><defs
     id="defs2406"><inkscape:perspective
       sodipodi:type="inkscape:persp3d"
       inkscape:vp_x="0 : 526.18109 : 1"
       inkscape:vp_y="0 : 1000 : 0"
       inkscape:vp_z="744.09448 : 526.18109 : 1"
       inkscape:persp3d-origin="372.04724 : 350.78739 : 1"
       id="perspective2410" /><clipPath
       clipPathUnits="userSpaceOnUse"
       id="clipPath2424"><path
         d="M 0,612 792,612 792,0 0,0 0,612 Z"
         id="path2426"
         inkscape:connector-curvature="0" /></clipPath></defs><sodipodi:namedview
     inkscape:window-height="873"
     inkscape:window-width="1153"
     inkscape:pageshadow="2"
     inkscape:pageopacity="0.0"
     guidetolerance="10.0"
     gridtolerance="10.0"
     objecttolerance="10.0"
     borderopacity="1.0"
     bordercolor="#666666"
     pagecolor="#ffffff"
     id="base"
     showgrid="false"
     inkscape:zoom="5.6568542"
     inkscape:cx="12"
     inkscape:cy="-10.206747"
     inkscape:window-x="313"
     inkscape:window-y="66"
     inkscape:current-layer="g2412"
     showborder="true"
     inkscape:window-maximized="0" /><g
     id="g2412"
     inkscape:groupmode="layer"
     inkscape:label="liftweb-logo-single"
     transform="matrix(1.25,0,0,-1.25,-294.58624,186.05121)"><g
       id="g2445"
       transform="matrix(0.05959572,0,0,0.04808535,222.1912,123.86314)"><path
         d="m 488.039,319.4473 c 0,-24.6 -19.95,-52.96 -44.54,-63.34 l -163.3,-68.95 c -24.59,-10.39 -44.53,1.13 -44.53,25.73 l 0,163.31 c 0,24.59 19.94,52.94 44.53,63.33 l 163.3,68.95 c 24.59,10.38 44.54,-1.14 44.54,-25.74 l 0,-163.29 z"
         style="fill:#4861b4;fill-opacity:1;fill-rule:nonzero;stroke:none"
         id="path2498"
         inkscape:connector-curvature="0" /><path
         d="m 522.936,458.0263 0,-162.75 c 0,-24.59 -19.94,-52.95 -44.54,-63.33 l -163.3,-68.95 c -8.44,-3.57 -16.32,-4.51 -23.05,-3.26 l 0,-0.55 c 0,-24.58 19.94,-36.11 44.53,-25.73 l 163.31,68.95 c 24.59,10.39 44.53,38.74 44.53,63.34 l 0,163.3 c 0,16.15 -8.62,26.6 -21.48,28.98"
         style="fill:#25336d;fill-opacity:1;fill-rule:nonzero;stroke:none"
         id="path2502"
         inkscape:connector-curvature="0" /><path
         d="m 460.871,196.2103 c -21.03,0 -38.86,7.48 -53.51,22.48 -14.64,14.99 -21.96,33.01 -21.96,54.06 l 0,110.93 39.67,16.75 -71.15,60.32 -64.73,-117.68 42.4,17.9 0,-88.17 c 0,-35.29 12.71,-65.33 38.11,-90.09 9.44,-9.19 19.56,-16.67 30.36,-22.45 l 85.14,35.95 -24.33,0 z"
         style="fill:#ffffff;fill-opacity:1;fill-rule:nonzero;stroke:none"
         id="path2506"
         inkscape:connector-curvature="0" /></g></g></svg>